<?xml version="1.0" encoding="utf-8"?>
<!DOCTYPE svg PUBLIC "-//W3C//DTD SVG 1.1//EN" "http://www.w3.org/Graphics/SVG/1.1/DTD/svg11.dtd">
<svg version="1.1" id="Layer_1" xmlns="http://www.w3.org/2000/svg" xmlns:xlink="http://www.w3.org/1999/xlink" x="0px" y="0px"
	 width="250px" height="356px" viewBox="370 150 200 280" enable-background="new 0 0 1400 980" xml:space="preserve">
<g>
	<g>
		<path fill="#C484A7" d="M572.111,159.439c0-5.566-4.513-10.079-10.078-10.079l0,0H380.608l0,0l0,0
			c-5.566,0-10.079,4.513-10.079,10.079l0,0v262.058c0,5.566,4.513,10.079,10.079,10.079c0.007,0,0.015,0,0.022,0h181.38
			c0.008,0,0.015,0,0.021,0c5.566,0,10.079-4.513,10.079-10.079V159.439L572.111,159.439z"/>
		<g>
			<g>
				
					<rect x="508.149" y="279.879" transform="matrix(0.8091 0.5877 -0.5877 0.8091 283.5516 -238.3817)" fill="#FFFFFF" width="1.12" height="74.785"/>
				<path fill="#FFFFFF" d="M514.22,305.912l-0.907-0.658l13.28-18.319c-1.044-1.314-4.016-5.415-13.281-18.196l0.907-0.657
					c0,0,13.357,18.427,13.473,18.583l0.24,0.329l-0.238,0.332L514.22,305.912z"/>
				<path fill="#FFFFFF" d="M504.313,330.054l-0.906-0.659l30.784-42.463c-1.118-1.412-4.449-6.007-15.298-20.971l-15.487-21.364
					l0.907-0.657c0.309,0.426,30.824,42.521,30.974,42.726l0.24,0.329l-0.238,0.331L504.313,330.054z"/>
				<path fill="#FFFFFF" d="M511.898,313.824l-4.071-5.614l15.426-21.278c-1.114-1.406-4.427-5.975-15.188-20.82l-0.238-0.329
					l3.381-4.662c-0.938-1.292-1.92-2.647-2.951-4.069l-21.947-30.275l0.906-0.657c0.438,0.604,43.725,60.316,43.894,60.547
					l0.24,0.329L511.898,313.824z M509.211,308.21l2.688,3.707l18.065-24.92l-18.066-24.922l-2.688,3.707
					c1.936,2.671,15.027,20.73,15.139,20.883l0.241,0.329l-0.238,0.331L509.211,308.21z"/>
				
					<rect x="396.538" y="316.711" transform="matrix(0.5869 0.8096 -0.8096 0.5869 436.1185 -220.2711)" fill="#FFFFFF" width="74.785" height="1.119"/>
				<polygon fill="#FFFFFF" points="471.32,365.296 462.702,353.41 463.608,352.752 471.319,363.389 479.031,352.752 
					479.938,353.41 				"/>
				<polygon fill="#FFFFFF" points="471.32,375.564 462.217,363.01 463.123,362.351 471.319,373.657 479.517,362.351 
					480.423,363.01 				"/>
				<path fill="#FFFFFF" d="M428.42,305.911l-13.713-18.917l0.242-0.33c0.115-0.156,13.472-18.583,13.472-18.583l0.907,0.657
					c-9.266,12.781-12.237,16.882-13.28,18.196l13.278,18.32L428.42,305.911z"/>
				<polygon fill="#FFFFFF" points="463.609,221.24 462.703,220.583 471.32,208.695 479.937,220.583 479.03,221.24 471.32,210.604 
									"/>
				<path fill="#FFFFFF" d="M438.326,330.054l-31.214-43.058l0.24-0.33c0.121-0.166,30.975-42.727,30.975-42.727l0.906,0.657
					l-15.487,21.364c-10.849,14.964-14.179,19.559-15.297,20.97l30.783,42.464L438.326,330.054z"/>
				<polygon fill="#FFFFFF" points="479.516,211.641 471.32,200.335 463.124,211.641 462.218,210.983 471.32,198.427 
					480.423,210.983 				"/>
				<path fill="#FFFFFF" d="M430.741,313.824l-19.45-26.828l0.24-0.329c0.015-0.021,0.504-0.696,1.369-1.89l16.289-22.47
					c12.198-16.826,26.235-36.189,26.235-36.189l0.907,0.657l-21.948,30.275c-1.03,1.422-2.013,2.777-2.95,4.07l3.38,4.661
					l-0.238,0.329c-10.763,14.846-14.074,19.414-15.188,20.82l15.426,21.278L430.741,313.824z M412.675,286.997l18.066,24.92
					l2.688-3.707l-15.38-21.216l0.241-0.329c0.111-0.152,13.203-18.212,15.139-20.883l-2.688-3.707L412.675,286.997z"/>
			</g>
			<path fill="#FFFFFF" d="M561.474,226.315c-2.168-31.928-13.524-46.504-16.505-49.812c-3.309-2.981-17.886-14.338-49.812-16.505
				l0.038-1.119h51.803l-1.067,0.974c-0.016,0.015-0.758,0.703-1.619,1.907h7.942v-2.881h10.339v10.339h-2.881v7.942
				c1.204-0.861,1.893-1.603,1.907-1.619l0.974-1.066v51.803L561.474,226.315z M546.807,176.941
				c3.548,4.396,11.394,16.304,14.666,38.722v-38.446c-0.447,0.382-1.04,0.845-1.761,1.312v14.562l-1.111,0.101
				c-1.004-5.47-5.687-12.51-5.733-12.581l-0.514-0.767l0.918-0.102c2.106-0.231,3.924-1.018,5.32-1.848v-8.675h-4.688l5.808-6.803
				v5.683h1.761V160h-8.099v1.761h5.683l-6.803,5.808v-4.688h-8.674c-0.831,1.396-1.617,3.213-1.849,5.321l-0.101,0.917
				l-0.768-0.514c-0.07-0.047-7.115-4.73-12.581-5.734l0.102-1.11h14.561c0.467-0.722,0.93-1.313,1.312-1.761h-38.444
				c22.417,3.272,34.324,11.118,38.72,14.666l0.334,0.167c-0.748-3.526,0.039-7.832,1.585-9.346
				c0.711-0.696,1.563-0.837,2.398-0.396c0.938,0.493,1.512,1.183,1.706,2.049c0.375,1.662-0.852,3.322-0.904,3.392l-0.896-0.671
				c0.01-0.014,0.971-1.323,0.708-2.479c-0.122-0.537-0.493-0.963-1.135-1.3c-0.265-0.14-0.632-0.246-1.093,0.206
				c-1.399,1.369-2.019,5.838-1.089,9.039c3.201,0.931,7.67,0.311,9.039-1.089c0.451-0.46,0.347-0.825,0.207-1.093
				c-0.339-0.643-0.766-1.015-1.304-1.135c-1.146-0.258-2.462,0.697-2.476,0.707l-0.671-0.896c0.069-0.052,1.733-1.279,3.392-0.904
				c0.866,0.194,1.556,0.769,2.049,1.706c0.44,0.836,0.299,1.688-0.396,2.398c-1.515,1.545-5.819,2.331-9.346,1.586L546.807,176.941
				z M554.275,180.728c0.923,1.465,2.961,4.876,4.316,8.445v-9.979C557.386,179.844,555.931,180.431,554.275,180.728z
				 M556.333,168.099h2.259v-2.646L556.333,168.099z M532.3,162.881c3.569,1.354,6.98,3.394,8.445,4.316
				c0.298-1.656,0.884-3.11,1.535-4.316H532.3z M553.374,162.881v2.259l2.646-2.259H553.374z"/>
			<path fill="#FFFFFF" d="M447.445,422.057h-51.802l1.066-0.974c0.016-0.015,0.758-0.703,1.619-1.907h-7.942v2.881h-10.339v-10.338
				h2.881v-7.942c-1.204,0.86-1.893,1.603-1.907,1.618l-0.974,1.066v-51.802l1.119-0.038c2.167,31.926,13.523,46.503,16.505,49.812
				c3.308,2.98,17.884,14.338,49.812,16.505L447.445,422.057z M398.385,420.937h38.445c-22.418-3.271-34.325-11.118-38.721-14.667
				l-0.334-0.166c0.748,3.526-0.039,7.831-1.585,9.346c-0.711,0.695-1.563,0.839-2.398,0.396c-0.938-0.493-1.512-1.182-1.706-2.048
				c-0.375-1.663,0.852-3.323,0.904-3.393l0.896,0.67c-0.01,0.014-0.971,1.324-0.708,2.48c0.122,0.537,0.493,0.961,1.135,1.299
				c0.268,0.141,0.634,0.245,1.093-0.206c1.399-1.37,2.019-5.838,1.09-9.039c-3.205-0.932-7.671-0.311-9.04,1.089
				c-0.451,0.46-0.347,0.826-0.207,1.094c0.338,0.641,0.764,1.012,1.3,1.135c1.155,0.263,2.466-0.698,2.479-0.708l0.671,0.896
				c-0.069,0.052-1.729,1.287-3.393,0.903c-0.866-0.194-1.555-0.769-2.048-1.706c-0.44-0.835-0.299-1.688,0.396-2.398
				c1.514-1.546,5.817-2.334,9.346-1.586l-0.167-0.333c-3.548-4.396-11.394-16.302-14.666-38.72v38.444
				c0.447-0.382,1.039-0.845,1.761-1.312v-14.561l1.11-0.103c1.005,5.47,5.688,12.512,5.734,12.582l0.514,0.768l-0.918,0.101
				c-2.107,0.231-3.925,1.019-5.32,1.849v8.675h4.688l-5.808,6.802v-5.683h-1.761v8.099h8.099v-1.761h-5.683l6.803-5.807v4.687
				h8.674c0.831-1.396,1.617-3.213,1.849-5.32l0.102-0.917l0.767,0.513c0.07,0.048,7.115,4.73,12.581,5.733l-0.102,1.111h-14.561
				C399.229,419.896,398.767,420.489,398.385,420.937z M400.36,418.056h9.979c-3.568-1.354-6.979-3.394-8.444-4.316
				C401.599,415.396,401.012,416.85,400.36,418.056z M386.621,418.056h2.646v-2.259L386.621,418.056z M384.049,412.838v2.647
				l2.259-2.647H384.049z M384.049,391.764v9.98c1.206-0.651,2.66-1.238,4.316-1.534
				C387.442,398.744,385.403,395.333,384.049,391.764z"/>
			<path fill="#FFFFFF" d="M381.167,226.315l-1.119-0.037v-51.803l0.975,1.066c0.015,0.017,0.702,0.758,1.907,1.619v-7.942h-2.882
				V158.88h10.339v2.881h7.946c-0.862-1.205-1.605-1.892-1.622-1.906l-1.072-0.975h51.808l0.038,1.119
				c-31.926,2.167-46.503,13.523-49.813,16.505C394.692,179.812,383.335,194.388,381.167,226.315z M381.168,177.217v38.446
				c3.273-22.418,11.118-34.325,14.667-38.722l0.166-0.333c-3.523,0.747-7.831-0.04-9.345-1.586
				c-0.696-0.711-0.837-1.563-0.397-2.398c0.493-0.938,1.184-1.512,2.05-1.706c1.661-0.375,3.322,0.853,3.392,0.904l-0.671,0.896
				c-0.014-0.01-1.319-0.974-2.479-0.708c-0.537,0.123-0.962,0.493-1.3,1.135c-0.141,0.268-0.244,0.633,0.206,1.093
				c1.37,1.398,5.837,2.018,9.04,1.09c0.93-3.202,0.311-7.671-1.089-9.04c-0.46-0.452-0.827-0.346-1.094-0.206
				c-0.641,0.337-1.012,0.763-1.134,1.3c-0.263,1.155,0.698,2.465,0.708,2.479l-0.897,0.671c-0.052-0.069-1.278-1.729-0.904-3.392
				c0.195-0.866,0.77-1.556,1.706-2.049c0.836-0.44,1.688-0.3,2.398,0.396c1.546,1.514,2.333,5.819,1.586,9.346l0.334-0.167
				c4.396-3.548,16.302-11.394,38.72-14.666h-38.445c0.383,0.447,0.845,1.039,1.313,1.761h14.561l0.102,1.11
				c-5.47,1.005-12.511,5.688-12.581,5.734l-0.768,0.514l-0.101-0.917c-0.232-2.111-1.017-3.927-1.846-5.321h-8.678v4.688
				l-6.803-5.808h5.684V160h-8.1v8.099h1.762v-5.683l5.808,6.803h-4.688v8.675c1.396,0.83,3.213,1.616,5.32,1.848l0.918,0.102
				l-0.514,0.767c-0.047,0.07-4.73,7.115-5.734,12.581l-1.11-0.101v-14.562C382.208,178.062,381.615,177.599,381.168,177.217z
				 M384.05,179.193v9.979c1.354-3.569,3.394-6.98,4.315-8.445C386.71,180.431,385.256,179.844,384.05,179.193z M384.05,168.099
				h2.259l-2.259-2.646V168.099z M400.361,162.881c0.651,1.206,1.237,2.66,1.534,4.316c1.465-0.923,4.877-2.962,8.446-4.316H400.361
				z M386.621,162.881l2.646,2.259v-2.259H386.621z"/>
			<path fill="#FFFFFF" d="M562.594,422.057h-10.339v-2.881h-7.945c0.861,1.205,1.605,1.893,1.621,1.906l1.072,0.975h-51.808
				l-0.037-1.119c31.927-2.167,46.504-13.524,49.812-16.505c2.981-3.309,14.337-17.886,16.505-49.812l1.119,0.038v51.802
				l-0.975-1.066c-0.015-0.016-0.702-0.758-1.906-1.618v7.942h2.881V422.057z M553.374,420.937h8.1v-8.099h-1.761v5.683
				l-5.808-6.802h4.688v-8.675c-1.396-0.83-3.214-1.617-5.321-1.849l-0.917-0.101l0.513-0.768c0.048-0.07,4.731-7.115,5.735-12.582
				l1.11,0.103v14.561c0.721,0.467,1.313,0.93,1.761,1.312v-38.444c-3.272,22.418-11.118,34.324-14.667,38.72l-0.166,0.333
				c3.526-0.746,7.831,0.04,9.345,1.586c0.696,0.711,0.838,1.563,0.397,2.398c-0.493,0.938-1.183,1.512-2.049,1.706
				c-1.662,0.383-3.322-0.852-3.392-0.903l0.671-0.896c0.013,0.01,1.322,0.971,2.479,0.708c0.537-0.123,0.963-0.494,1.3-1.135
				c0.141-0.268,0.244-0.634-0.206-1.094c-1.369-1.399-5.836-2.02-9.04-1.089c-0.929,3.201-0.31,7.669,1.089,9.039
				c0.46,0.451,0.826,0.347,1.094,0.206c0.642-0.338,1.012-0.762,1.135-1.299c0.263-1.156-0.698-2.467-0.709-2.48l0.897-0.67
				c0.053,0.069,1.279,1.729,0.904,3.393c-0.194,0.866-0.769,1.555-1.706,2.048c-0.837,0.442-1.688,0.299-2.398-0.396
				c-1.546-1.515-2.333-5.819-1.586-9.346l-0.333,0.166c-4.396,3.549-16.303,11.396-38.721,14.667h38.445
				c-0.383-0.447-0.845-1.04-1.312-1.761h-14.562l-0.101-1.111c5.469-1.004,12.51-5.686,12.58-5.732l0.768-0.514l0.102,0.917
				c0.231,2.111,1.016,3.927,1.845,5.32h8.678v-4.687l6.803,5.807h-5.684V420.937z M553.374,418.056h2.646l-2.646-2.259V418.056z
				 M532.301,418.056h9.979c-0.651-1.206-1.237-2.66-1.534-4.316C539.281,414.662,535.87,416.701,532.301,418.056z M556.334,412.838
				l2.259,2.647v-2.647H556.334z M554.276,400.21c1.655,0.296,3.11,0.883,4.316,1.534v-9.98
				C557.238,395.333,555.198,398.744,554.276,400.21z"/>
			<path fill="#FFFFFF" d="M561.474,226.315c-2.168-31.928-13.524-46.504-16.505-49.812c-3.309-2.981-17.886-14.338-49.812-16.505
				l0.038-1.119h51.803l-1.067,0.974c-0.016,0.015-0.758,0.703-1.619,1.907h7.942v-2.881h10.339v10.339h-2.881v7.942
				c1.204-0.861,1.893-1.603,1.907-1.619l0.974-1.066v51.803L561.474,226.315z M546.807,176.941
				c3.548,4.396,11.394,16.304,14.666,38.722v-38.446c-0.447,0.382-1.04,0.845-1.761,1.312v14.562l-1.111,0.101
				c-1.004-5.47-5.687-12.51-5.733-12.581l-0.514-0.767l0.918-0.102c2.106-0.231,3.924-1.018,5.32-1.848v-8.675h-4.688l5.808-6.803
				v5.683h1.761V160h-8.099v1.761h5.683l-6.803,5.808v-4.688h-8.674c-0.831,1.396-1.617,3.213-1.849,5.321l-0.101,0.917
				l-0.768-0.514c-0.07-0.047-7.115-4.73-12.581-5.734l0.102-1.11h14.561c0.467-0.722,0.93-1.313,1.312-1.761h-38.444
				c22.417,3.272,34.324,11.118,38.72,14.666l0.334,0.167c-0.748-3.526,0.039-7.832,1.585-9.346
				c0.711-0.696,1.563-0.837,2.398-0.396c0.938,0.493,1.512,1.183,1.706,2.049c0.375,1.662-0.852,3.322-0.904,3.392l-0.896-0.671
				c0.01-0.014,0.971-1.323,0.708-2.479c-0.122-0.537-0.493-0.963-1.135-1.3c-0.265-0.14-0.632-0.246-1.093,0.206
				c-1.399,1.369-2.019,5.838-1.089,9.039c3.201,0.931,7.67,0.311,9.039-1.089c0.451-0.46,0.347-0.825,0.207-1.093
				c-0.339-0.643-0.766-1.015-1.304-1.135c-1.146-0.258-2.462,0.697-2.476,0.707l-0.671-0.896c0.069-0.052,1.733-1.279,3.392-0.904
				c0.866,0.194,1.556,0.769,2.049,1.706c0.44,0.836,0.299,1.688-0.396,2.398c-1.515,1.545-5.819,2.331-9.346,1.586L546.807,176.941
				z M554.275,180.728c0.923,1.465,2.961,4.876,4.316,8.445v-9.979C557.386,179.844,555.931,180.431,554.275,180.728z
				 M556.333,168.099h2.259v-2.646L556.333,168.099z M532.3,162.881c3.569,1.354,6.98,3.394,8.445,4.316
				c0.298-1.656,0.884-3.11,1.535-4.316H532.3z M553.374,162.881v2.259l2.646-2.259H553.374z"/>
			<path fill="#FFFFFF" d="M447.445,422.057h-51.802l1.066-0.974c0.016-0.015,0.758-0.703,1.619-1.907h-7.942v2.881h-10.339v-10.338
				h2.881v-7.942c-1.204,0.86-1.893,1.603-1.907,1.618l-0.974,1.066v-51.802l1.119-0.038c2.167,31.926,13.523,46.503,16.505,49.812
				c3.308,2.98,17.884,14.338,49.812,16.505L447.445,422.057z M398.385,420.937h38.445c-22.418-3.271-34.325-11.118-38.721-14.667
				l-0.334-0.166c0.748,3.526-0.039,7.831-1.585,9.346c-0.711,0.695-1.563,0.839-2.398,0.396c-0.938-0.493-1.512-1.182-1.706-2.048
				c-0.375-1.663,0.852-3.323,0.904-3.393l0.896,0.67c-0.01,0.014-0.971,1.324-0.708,2.48c0.122,0.537,0.493,0.961,1.135,1.299
				c0.268,0.141,0.634,0.245,1.093-0.206c1.399-1.37,2.019-5.838,1.09-9.039c-3.205-0.932-7.671-0.311-9.04,1.089
				c-0.451,0.46-0.347,0.826-0.207,1.094c0.338,0.641,0.764,1.012,1.3,1.135c1.155,0.263,2.466-0.698,2.479-0.708l0.671,0.896
				c-0.069,0.052-1.729,1.287-3.393,0.903c-0.866-0.194-1.555-0.769-2.048-1.706c-0.44-0.835-0.299-1.688,0.396-2.398
				c1.514-1.546,5.817-2.334,9.346-1.586l-0.167-0.333c-3.548-4.396-11.394-16.302-14.666-38.72v38.444
				c0.447-0.382,1.039-0.845,1.761-1.312v-14.561l1.11-0.103c1.005,5.47,5.688,12.512,5.734,12.582l0.514,0.768l-0.918,0.101
				c-2.107,0.231-3.925,1.019-5.32,1.849v8.675h4.688l-5.808,6.802v-5.683h-1.761v8.099h8.099v-1.761h-5.683l6.803-5.807v4.687
				h8.674c0.831-1.396,1.617-3.213,1.849-5.32l0.102-0.917l0.767,0.513c0.07,0.048,7.115,4.73,12.581,5.733l-0.102,1.111h-14.561
				C399.229,419.896,398.767,420.489,398.385,420.937z M400.36,418.056h9.979c-3.568-1.354-6.979-3.394-8.444-4.316
				C401.599,415.396,401.012,416.85,400.36,418.056z M386.621,418.056h2.646v-2.259L386.621,418.056z M384.049,412.838v2.647
				l2.259-2.647H384.049z M384.049,391.764v9.98c1.206-0.651,2.66-1.238,4.316-1.534
				C387.442,398.744,385.403,395.333,384.049,391.764z"/>
			<path fill="#FFFFFF" d="M381.167,226.315l-1.119-0.037v-51.803l0.975,1.066c0.015,0.017,0.702,0.758,1.907,1.619v-7.942h-2.882
				V158.88h10.339v2.881h7.946c-0.862-1.205-1.605-1.892-1.622-1.906l-1.072-0.975h51.808l0.038,1.119
				c-31.926,2.167-46.503,13.523-49.813,16.505C394.692,179.812,383.335,194.388,381.167,226.315z M381.168,177.217v38.446
				c3.273-22.418,11.118-34.325,14.667-38.722l0.166-0.333c-3.523,0.747-7.831-0.04-9.345-1.586
				c-0.696-0.711-0.837-1.563-0.397-2.398c0.493-0.938,1.184-1.512,2.05-1.706c1.661-0.375,3.322,0.853,3.392,0.904l-0.671,0.896
				c-0.014-0.01-1.319-0.974-2.479-0.708c-0.537,0.123-0.962,0.493-1.3,1.135c-0.141,0.268-0.244,0.633,0.206,1.093
				c1.37,1.398,5.837,2.018,9.04,1.09c0.93-3.202,0.311-7.671-1.089-9.04c-0.46-0.452-0.827-0.346-1.094-0.206
				c-0.641,0.337-1.012,0.763-1.134,1.3c-0.263,1.155,0.698,2.465,0.708,2.479l-0.897,0.671c-0.052-0.069-1.278-1.729-0.904-3.392
				c0.195-0.866,0.77-1.556,1.706-2.049c0.836-0.44,1.688-0.3,2.398,0.396c1.546,1.514,2.333,5.819,1.586,9.346l0.334-0.167
				c4.396-3.548,16.302-11.394,38.72-14.666h-38.445c0.383,0.447,0.845,1.039,1.313,1.761h14.561l0.102,1.11
				c-5.47,1.005-12.511,5.688-12.581,5.734l-0.768,0.514l-0.101-0.917c-0.232-2.111-1.017-3.927-1.846-5.321h-8.678v4.688
				l-6.803-5.808h5.684V160h-8.1v8.099h1.762v-5.683l5.808,6.803h-4.688v8.675c1.396,0.83,3.213,1.616,5.32,1.848l0.918,0.102
				l-0.514,0.767c-0.047,0.07-4.73,7.115-5.734,12.581l-1.11-0.101v-14.562C382.208,178.062,381.615,177.599,381.168,177.217z
				 M384.05,179.193v9.979c1.354-3.569,3.394-6.98,4.315-8.445C386.71,180.431,385.256,179.844,384.05,179.193z M384.05,168.099
				h2.259l-2.259-2.646V168.099z M400.361,162.881c0.651,1.206,1.237,2.66,1.534,4.316c1.465-0.923,4.877-2.962,8.446-4.316H400.361
				z M386.621,162.881l2.646,2.259v-2.259H386.621z"/>
			<path fill="#FFFFFF" d="M562.594,422.057h-10.339v-2.881h-7.945c0.861,1.205,1.605,1.893,1.621,1.906l1.072,0.975h-51.808
				l-0.037-1.119c31.927-2.167,46.504-13.524,49.812-16.505c2.981-3.309,14.337-17.886,16.505-49.812l1.119,0.038v51.802
				l-0.975-1.066c-0.015-0.016-0.702-0.758-1.906-1.618v7.942h2.881V422.057z M553.374,420.937h8.1v-8.099h-1.761v5.683
				l-5.808-6.802h4.688v-8.675c-1.396-0.83-3.214-1.617-5.321-1.849l-0.917-0.101l0.513-0.768c0.048-0.07,4.731-7.115,5.735-12.582
				l1.11,0.103v14.561c0.721,0.467,1.313,0.93,1.761,1.312v-38.444c-3.272,22.418-11.118,34.324-14.667,38.72l-0.166,0.333
				c3.526-0.746,7.831,0.04,9.345,1.586c0.696,0.711,0.838,1.563,0.397,2.398c-0.493,0.938-1.183,1.512-2.049,1.706
				c-1.662,0.383-3.322-0.852-3.392-0.903l0.671-0.896c0.013,0.01,1.322,0.971,2.479,0.708c0.537-0.123,0.963-0.494,1.3-1.135
				c0.141-0.268,0.244-0.634-0.206-1.094c-1.369-1.399-5.836-2.02-9.04-1.089c-0.929,3.201-0.31,7.669,1.089,9.039
				c0.46,0.451,0.826,0.347,1.094,0.206c0.642-0.338,1.012-0.762,1.135-1.299c0.263-1.156-0.698-2.467-0.709-2.48l0.897-0.67
				c0.053,0.069,1.279,1.729,0.904,3.393c-0.194,0.866-0.769,1.555-1.706,2.048c-0.837,0.442-1.688,0.299-2.398-0.396
				c-1.546-1.515-2.333-5.819-1.586-9.346l-0.333,0.166c-4.396,3.549-16.303,11.396-38.721,14.667h38.445
				c-0.383-0.447-0.845-1.04-1.312-1.761h-14.562l-0.101-1.111c5.469-1.004,12.51-5.686,12.58-5.732l0.768-0.514l0.102,0.917
				c0.231,2.111,1.016,3.927,1.845,5.32h8.678v-4.687l6.803,5.807h-5.684V420.937z M553.374,418.056h2.646l-2.646-2.259V418.056z
				 M532.301,418.056h9.979c-0.651-1.206-1.237-2.66-1.534-4.316C539.281,414.662,535.87,416.701,532.301,418.056z M556.334,412.838
				l2.259,2.647v-2.647H556.334z M554.276,400.21c1.655,0.296,3.11,0.883,4.316,1.534v-9.98
				C557.238,395.333,555.198,398.744,554.276,400.21z"/>
			<path fill="#FFFFFF" d="M471.319,319.544l-26.11-32.548l26.11-32.548l26.111,32.548L471.319,319.544z M446.645,286.996
				l24.675,30.759l24.675-30.759l-24.675-30.759L446.645,286.996z"/>
			<rect x="380.048" y="226.278" fill="#FFFFFF" width="1.12" height="128.381"/>
			<rect x="561.473" y="226.278" fill="#FFFFFF" width="1.12" height="128.381"/>
		</g>
	</g>
</g>
</svg>
